<svg width="20" height="20" viewBox="0 0 20 20" fill="none" xmlns="http://www.w3.org/2000/svg">
<path d="M3.33341 7.50002C4.25389 7.50002 5.00008 6.75383 5.00008 5.83335C5.00008 4.91288 4.25389 4.16669 3.33341 4.16669C2.41294 4.16669 1.66675 4.91288 1.66675 5.83335C1.66675 6.75383 2.41294 7.50002 3.33341 7.50002Z" stroke="#272D30" stroke-width="1.5" stroke-linecap="round" stroke-linejoin="round"/>
<path d="M16.6667 7.50002C17.5871 7.50002 18.3333 6.75383 18.3333 5.83335C18.3333 4.91288 17.5871 4.16669 16.6667 4.16669C15.7462 4.16669 15 4.91288 15 5.83335C15 6.75383 15.7462 7.50002 16.6667 7.50002Z" stroke="#272D30" stroke-width="1.5" stroke-linecap="round" stroke-linejoin="round"/>
<path d="M16.6667 15.8333C17.5871 15.8333 18.3333 15.0871 18.3333 14.1667C18.3333 13.2462 17.5871 12.5 16.6667 12.5C15.7462 12.5 15 13.2462 15 14.1667C15 15.0871 15.7462 15.8333 16.6667 15.8333Z" stroke="#272D30" stroke-width="1.5" stroke-linecap="round" stroke-linejoin="round"/>
<path d="M15 5.83331H5" stroke="#272D30" stroke-width="1.5" stroke-linecap="round" stroke-linejoin="round"/>
<path d="M5.83325 5.83331C7.21396 5.83331 8.33325 6.9526 8.33325 8.33331V12.5C8.33325 13.4205 9.07942 14.1666 9.99992 14.1666H14.9999" stroke="#272D30" stroke-width="1.5" stroke-linecap="round" stroke-linejoin="round"/>
</svg>
