<svg width="20" height="20" viewBox="0 0 20 20" fill="none" xmlns="http://www.w3.org/2000/svg">
<path d="M6.66667 3.33335H4.16667C3.24619 3.33335 2.5 4.07955 2.5 5.00002V7.50002M6.66667 3.33335H13.3333M6.66667 3.33335V1.66669M6.66667 3.33335V5.00002M13.3333 3.33335H15.8333C16.7538 3.33335 17.5 4.07955 17.5 5.00002V7.50002H2.5M13.3333 3.33335V1.66669M13.3333 3.33335V5.00002M2.5 7.50002V16.6667C2.5 17.5872 3.24619 18.3334 4.16667 18.3334H8.33333M14.1667 12.7084V14.1667L15.2083 15.2084M18.3333 14.1667C18.3333 16.4679 16.4678 18.3334 14.1667 18.3334C11.8655 18.3334 10 16.4679 10 14.1667C10 11.8655 11.8655 10 14.1667 10C16.4678 10 18.3333 11.8655 18.3333 14.1667Z" stroke="#00A353" stroke-width="1.5" stroke-linecap="round" stroke-linejoin="round"/>
</svg>
