<svg width="20" height="20" viewBox="0 0 20 20" fill="none" xmlns="http://www.w3.org/2000/svg">
<g clip-path="url(#clip0_1763_57402)">
<path d="M6.66663 13.3334L13.3333 6.66669M6.62193 3.54145L5.20992 3.53089C4.27971 3.52392 3.52386 4.27977 3.53082 5.20998L3.54139 6.62199C3.54477 7.07265 3.36548 7.50548 3.04442 7.82176L2.03852 8.81277C1.37583 9.4656 1.37583 10.5345 2.03852 11.1874L3.04442 12.1783C3.36548 12.4946 3.54477 12.9274 3.54139 13.3781L3.53082 14.7901C3.52386 15.7203 4.27971 16.4761 5.20992 16.4692L6.62193 16.4586C7.07259 16.4553 7.50542 16.6345 7.8217 16.9556L8.81271 17.9615C9.46554 18.6242 10.5345 18.6242 11.1873 17.9615L12.1782 16.9556C12.4945 16.6345 12.9274 16.4553 13.378 16.4586L14.79 16.4692C15.7202 16.4761 16.476 15.7203 16.4691 14.7901L16.4585 13.3781C16.4552 12.9274 16.6345 12.4946 16.9555 12.1783L17.9615 11.1874C18.6241 10.5345 18.6241 9.4656 17.9615 8.81277L16.9555 7.82176C16.6345 7.50548 16.4552 7.07265 16.4585 6.62199L16.4691 5.20998C16.476 4.27977 15.7202 3.52392 14.79 3.53089L13.378 3.54145C12.9274 3.54483 12.4945 3.36554 12.1782 3.04449L11.1873 2.03858C10.5345 1.37589 9.46546 1.37589 8.81271 2.03858L7.8217 3.04449C7.50542 3.36554 7.07259 3.54483 6.62193 3.54145ZM8.47221 7.50016C8.47221 8.11381 7.97473 8.61127 7.36108 8.61127C6.74743 8.61127 6.24998 8.11381 6.24998 7.50016C6.24998 6.88651 6.74743 6.38905 7.36108 6.38905C7.97473 6.38905 8.47221 6.88651 8.47221 7.50016ZM13.75 12.5C13.75 13.1137 13.2525 13.6111 12.6389 13.6111C12.0252 13.6111 11.5277 13.1137 11.5277 12.5C11.5277 11.8864 12.0252 11.3889 12.6389 11.3889C13.2525 11.3889 13.75 11.8864 13.75 12.5Z" stroke="#272D30" stroke-width="1.5" stroke-linecap="round" stroke-linejoin="round"/>
</g>
<defs>
<clipPath id="clip0_1763_57402">
<rect width="20" height="20" fill="white"/>
</clipPath>
</defs>
</svg>
