<svg width="116" height="102" viewBox="0 0 116 102" fill="none" xmlns="http://www.w3.org/2000/svg">
<path d="M107.5 57.2418C102.011 54.7429 96.6674 56.0035 92.785 57.7996V38.1872C92.7821 33.6021 90.9594 29.2055 87.7171 25.9633C84.4749 22.7211 80.0783 20.8983 75.4931 20.8953H69.3462V14.6814C69.3432 10.7905 67.797 7.05962 65.0468 4.30728C62.2965 1.55495 58.5668 0.00590763 54.6759 0H38.4662C34.5752 0.00590763 30.8456 1.55495 28.0953 4.30728C25.3451 7.05962 23.7988 10.7905 23.7959 14.6814V20.8953H17.2919C12.7067 20.8983 8.31019 22.7211 5.06796 25.9633C1.82574 29.2055 0.00295533 33.6021 0 38.1872V63.1545C0 64.1901 0.411368 65.1833 1.14363 65.9155C1.87589 66.6478 2.86905 67.0592 3.90463 67.0592H8.57902V82.6219C8.58493 87.7595 10.6285 92.6849 14.2613 96.3177C17.8941 99.9506 22.8195 101.994 27.9571 102H65.1738C68.0166 101.986 70.8216 101.348 73.391 100.132C75.9605 98.9153 78.2318 97.1501 80.0448 94.9605C82.4257 96.8008 84.9101 98.503 87.4859 100.059C88.0891 100.409 88.7742 100.594 89.4717 100.594C90.1138 100.598 90.7466 100.441 91.3124 100.137C93.6194 98.8675 95.8541 97.4709 98.0061 95.9534C98.4273 95.6604 98.7867 95.2873 99.0637 94.8554C99.3407 94.4235 99.5299 93.9413 99.6205 93.4363C99.7112 92.9312 99.7015 92.4133 99.592 91.9121C99.4825 91.4108 99.2752 90.936 98.9822 90.5148C98.6892 90.0936 98.3161 89.7343 97.8843 89.4572C97.4524 89.1802 96.9701 88.991 96.4651 88.9004C95.9601 88.8097 95.4422 88.8194 94.9409 88.929C94.4397 89.0385 93.9648 89.2456 93.5436 89.5387C91.9818 90.6543 90.565 91.5021 89.5163 92.138C84.1168 88.6016 74.2994 80.9819 72.2132 73.8532C69.7701 65.5643 74.3776 64.0136 75.8948 63.5004C80.1341 62.0724 83.704 64.4152 85.3551 65.8766C85.4167 65.9419 85.4839 66.0016 85.5559 66.0551C85.8638 66.3307 86.1544 66.625 86.4261 66.9364C86.7621 67.3352 87.1736 67.6636 87.6369 67.9029C88.1002 68.1422 88.6062 68.2877 89.1259 68.3309C89.6472 68.372 90.1714 68.3083 90.6677 68.1436C91.1639 67.9788 91.6221 67.7163 92.0153 67.3715C92.0822 67.3158 98.5305 61.7935 104.198 64.3483C108.794 66.4344 107.757 72.3248 107.333 74.0763C106.873 75.7688 106.118 77.3664 105.101 78.7953C104.51 79.649 104.281 80.7027 104.466 81.7247C104.652 82.7467 105.235 83.6533 106.089 84.2451C106.942 84.8369 107.996 85.0653 109.018 84.8801C110.04 84.695 110.947 84.1114 111.538 83.2578C113.11 81.0571 114.266 78.5885 114.952 75.9729C117.016 67.5723 114.082 60.2317 107.5 57.2418ZM31.6386 14.6814C31.6371 13.7795 31.8135 12.8861 32.1577 12.0524C32.5018 11.2187 33.007 10.461 33.6442 9.82274C34.2814 9.18446 35.0383 8.67809 35.8714 8.3326C36.7046 7.98711 37.5977 7.80925 38.4996 7.80925H54.7094C56.5301 7.81221 58.2751 8.53756 59.5615 9.82601C60.8479 11.1145 61.5704 12.8607 61.5704 14.6814V20.8953H31.6051L31.6386 14.6814ZM74.1656 89.8622C73.0904 91.1985 71.7323 92.2798 70.189 93.0283C68.6458 93.7768 66.9558 94.1738 65.2407 94.1908H27.9571C24.8907 94.1849 21.9515 92.9641 19.7832 90.7958C17.6149 88.6275 16.3942 85.6883 16.3883 82.6219V67.0592H42.1142V72.9273C42.1142 73.7084 42.4245 74.4575 42.9768 75.0098C43.5291 75.5622 44.2783 75.8725 45.0594 75.8725H47.6922C48.4733 75.8725 49.2225 75.5622 49.7748 75.0098C50.3271 74.4575 50.6374 73.7084 50.6374 72.9273V67.0592H64.0247C63.6189 70.0766 63.8817 73.1464 64.7945 76.051C66.2782 81.1604 70.0713 85.9352 74.1321 89.8622H74.1656ZM73.4962 56.1039C71.493 56.7564 69.6522 57.829 68.0967 59.2499H50.6486V54.8879C50.6471 54.5011 50.5695 54.1184 50.4201 53.7617C50.2708 53.4049 50.0526 53.081 49.778 52.8086C49.5035 52.5361 49.178 52.3204 48.8201 52.1738C48.4623 52.0271 48.079 51.9524 47.6922 51.9538H45.0817C44.3025 51.9538 43.555 52.2626 43.003 52.8125C42.451 53.3625 42.1394 54.1087 42.1365 54.8879V59.2499H7.80925V38.1872C7.8122 35.6732 8.81222 33.263 10.5899 31.4853C12.3676 29.7076 14.7779 28.7075 17.2919 28.7046H75.4931C78.0072 28.7075 80.4174 29.7076 82.1951 31.4853C83.9728 33.263 84.9728 35.6732 84.9758 38.1872V56.5278C81.3256 54.9541 77.2187 54.8029 73.4627 56.1039H73.4962Z" fill="#00A353"/>
</svg>
