<svg width="120" height="102" viewBox="0 0 120 102" fill="none" xmlns="http://www.w3.org/2000/svg">
<path d="M59.8564 0C52.5083 0.0227568 45.3499 2.33534 39.3774 6.61602C33.4048 10.8967 28.9151 16.9326 26.5328 23.8839C24.1505 30.8351 23.9942 38.3561 26.0855 45.4004C28.1769 52.4447 32.4119 58.6619 38.2014 63.1871L38.3728 63.3156H38.4263L39.1117 63.8403C40.9752 65.3183 45.6768 69.6878 45.0021 75.3532H42.0783C41.0842 75.3532 40.1308 75.7482 39.4278 76.4511C38.7249 77.1541 38.3299 78.1075 38.3299 79.1016C38.3299 80.0958 38.7249 81.0492 39.4278 81.7522C40.1308 82.4551 41.0842 82.85 42.0783 82.85H44.2203C44.0596 88.9117 45.3983 93.7739 48.1828 97.0939C50.0463 99.3215 53.5377 101.988 59.5887 101.988C61.6908 102.074 63.7855 101.688 65.7186 100.858C67.6517 100.027 69.374 98.7741 70.7588 97.1903C74.111 93.2063 74.9035 87.5516 74.8499 82.85H77.4952C78.4894 82.85 79.4428 82.4551 80.1457 81.7522C80.8487 81.0492 81.2436 80.0958 81.2436 79.1016C81.2436 78.1075 80.8487 77.1541 80.1457 76.4511C79.4428 75.7482 78.4894 75.3532 77.4952 75.3532H74.1324C73.3934 67.2246 84.6493 62.8765 84.842 62.8229C85.3041 62.6514 85.7278 62.3905 86.089 62.0551C86.4501 61.7198 86.7417 61.3166 86.9471 60.8686C87.1524 60.4206 87.2675 59.9365 87.2858 59.444C87.3041 58.9515 87.2252 58.4602 87.0536 57.9982C86.882 57.5362 86.6211 57.1125 86.2858 56.7514C85.9504 56.3902 85.5473 56.0986 85.0993 55.8932C84.6513 55.6879 84.1672 55.5728 83.6747 55.5545C83.1822 55.5362 82.6909 55.6151 82.2289 55.7867C81.5328 56.0544 65.8752 61.9983 66.6463 75.3532H52.6059C53.2057 66.6142 46.8334 60.3597 43.9418 58.0678L43.8561 57.9822L43.5991 57.7894C43.2778 57.5431 43.0101 57.3503 42.8387 57.2325C39.0879 54.3392 36.1373 50.5368 34.2659 46.185C32.3945 41.8333 31.6643 37.076 32.1443 32.3634C32.6243 27.6507 34.2986 23.1384 37.0089 19.2533C39.7192 15.3682 43.3759 12.2387 47.633 10.161C51.8901 8.08326 56.6068 7.12595 61.3371 7.3796C66.0674 7.63325 70.6547 9.08947 74.6652 11.6105C78.6757 14.1316 81.9768 17.6341 84.2561 21.7868C86.5354 25.9394 87.7176 30.6049 87.6908 35.3419C87.6855 36.7761 87.5745 38.2079 87.3588 39.6258C87.2083 40.6086 87.4543 41.6109 88.0428 42.4123C88.6312 43.2136 89.514 43.7484 90.4968 43.8989C91.4795 44.0495 92.4818 43.8035 93.2832 43.215C94.0846 42.6265 94.6194 41.7438 94.7699 40.761C95.0482 38.9537 95.1878 37.1277 95.1876 35.2991C95.1762 25.9351 91.4492 16.9584 84.8248 10.3401C78.2005 3.72173 69.2204 0.00283069 59.8564 0ZM65.0613 92.478C64.3802 93.2263 63.5366 93.8086 62.5953 94.1799C61.654 94.5512 60.64 94.7017 59.6315 94.6199C58.5818 94.7047 57.5265 94.5502 56.5452 94.1681C55.5638 93.7859 54.682 93.1861 53.9661 92.4137C52.381 90.5074 51.6313 87.1982 51.7706 82.9786H67.396C67.4602 86.6627 66.8605 90.3147 65.0613 92.4459V92.478Z" fill="#00A353"/>
<path d="M65.8538 40.0435L60.0384 45.9124L53.7304 39.2724C53.0445 38.5523 52.1006 38.1343 51.1064 38.1102C50.1122 38.0861 49.1492 38.4579 48.4291 39.1438C47.7091 39.8298 47.291 40.7737 47.2669 41.7679C47.2428 42.7621 47.6147 43.7251 48.3006 44.4451L57.2646 53.8696C57.6104 54.233 58.0255 54.5235 58.4853 54.724C58.9451 54.9245 59.4404 55.0309 59.942 55.037C60.9373 55.045 61.8955 54.6601 62.6087 53.966L71.1765 45.3447C71.5224 44.9931 71.7958 44.5768 71.9809 44.1196C72.166 43.6624 72.2592 43.1731 72.2552 42.6799C72.2512 42.1866 72.1501 41.6989 71.9577 41.2448C71.7653 40.7906 71.4853 40.3787 71.1337 40.0328C70.7821 39.6868 70.3657 39.4134 69.9085 39.2284C69.4512 39.0433 68.9621 38.95 68.4688 38.954C67.9755 38.958 67.4879 39.0591 67.0337 39.2515C66.5795 39.444 66.1676 39.724 65.8216 40.0756L65.8538 40.0435Z" fill="#00A353"/>
<path d="M102.845 54.1053C102.135 53.3952 101.172 52.9962 100.168 52.9962C99.1634 52.9962 98.2003 53.3952 97.4902 54.1053C96.7801 54.8154 96.3811 55.7785 96.3811 56.7827C96.3811 57.7869 96.7801 58.75 97.4902 59.4601L101.86 63.8403C102.563 64.5433 103.516 64.9383 104.51 64.9383C105.505 64.9383 106.458 64.5433 107.161 63.8403C107.864 63.1374 108.259 62.1839 108.259 61.1897C108.259 60.1955 107.864 59.2421 107.161 58.5391L102.845 54.1053Z" fill="#00A353"/>
<path d="M101.078 16.9641C101.569 16.9696 102.057 16.8777 102.513 16.6939C102.969 16.5101 103.384 16.238 103.734 15.8932L108.103 11.5236C108.455 11.172 108.734 10.7546 108.924 10.2952C109.115 9.83579 109.212 9.34344 109.212 8.8462C109.212 8.34896 109.115 7.85658 108.924 7.39719C108.734 6.93779 108.455 6.52039 108.103 6.16878C107.752 5.81718 107.334 5.53826 106.875 5.34797C106.416 5.15769 105.923 5.05974 105.426 5.05974C104.929 5.05974 104.436 5.15769 103.977 5.34797C103.518 5.53826 103.1 5.81718 102.749 6.16878L98.379 10.5383C98.0296 10.8857 97.7524 11.2987 97.5632 11.7536C97.374 12.2085 97.2766 12.6963 97.2766 13.189C97.2766 13.6816 97.374 14.1695 97.5632 14.6244C97.7524 15.0792 98.0296 15.4923 98.379 15.8396C98.7291 16.2003 99.1489 16.486 99.6129 16.6793C100.077 16.8726 100.575 16.9695 101.078 16.9641Z" fill="#00A353"/>
<path d="M116.05 31.5507H108.939C107.945 31.5507 106.991 31.9456 106.288 32.6486C105.585 33.3515 105.19 34.3049 105.19 35.2991C105.19 36.2932 105.585 37.2466 106.288 37.9496C106.991 38.6526 107.945 39.0475 108.939 39.0475H116.05C117.044 39.0475 117.998 38.6526 118.701 37.9496C119.404 37.2466 119.798 36.2932 119.798 35.2991C119.798 34.3049 119.404 33.3515 118.701 32.6486C117.998 31.9456 117.044 31.5507 116.05 31.5507Z" fill="#00A353"/>
<path d="M16.9534 54.1053L12.5839 58.4855C12.2358 58.8336 11.9597 59.2469 11.7713 59.7017C11.5829 60.1565 11.4859 60.6439 11.4859 61.1362C11.4859 61.6284 11.5829 62.1159 11.7713 62.5707C11.9597 63.0255 12.2358 63.4387 12.5839 63.7868C12.932 64.1349 13.3452 64.411 13.8 64.5994C14.2548 64.7878 14.7422 64.8848 15.2345 64.8848C15.7268 64.8848 16.2142 64.7878 16.669 64.5994C17.1238 64.411 17.5371 64.1349 17.8852 63.7868L22.2547 59.4066C22.6063 59.0585 22.8859 58.6445 23.0775 58.1884C23.2692 57.7323 23.3691 57.2428 23.3716 56.7481C23.374 56.2533 23.2791 55.7629 23.092 55.3049C22.905 54.8468 22.6296 54.4301 22.2815 54.0785C21.9334 53.7269 21.5195 53.4473 21.0633 53.2557C20.6072 53.064 20.1178 52.9641 19.623 52.9616C19.1282 52.9592 18.6378 53.0541 18.1798 53.2412C17.7217 53.4282 17.305 53.7036 16.9534 54.0517V54.1053Z" fill="#00A353"/>
<path d="M16.0645 15.861C16.7675 16.564 17.721 16.959 18.7152 16.959C19.7094 16.959 20.6628 16.564 21.3658 15.861C22.0688 15.158 22.4638 14.2046 22.4638 13.2104C22.4638 12.2162 22.0688 11.2627 21.3658 10.5597L16.9963 6.19021C16.2862 5.48721 15.3259 5.0951 14.3267 5.10012C13.3275 5.10514 12.3712 5.50688 11.6682 6.21697C10.9652 6.92707 10.5731 7.88734 10.5781 8.88655C10.5831 9.88575 10.9849 10.842 11.695 11.545L16.0645 15.861Z" fill="#00A353"/>
<path d="M14.608 35.3419C14.608 34.3478 14.2131 33.3944 13.5101 32.6914C12.8072 31.9884 11.8538 31.5935 10.8596 31.5935H3.74839C2.75425 31.5935 1.80082 31.9884 1.09787 32.6914C0.394907 33.3944 0 34.3478 0 35.3419C0 36.3361 0.394907 37.2895 1.09787 37.9924C1.80082 38.6954 2.75425 39.0903 3.74839 39.0903H10.9132C11.898 39.0762 12.8377 38.6751 13.5291 37.9737C14.2206 37.2722 14.6081 36.3268 14.608 35.3419Z" fill="#00A353"/>
</svg>
