<svg width="104" height="102" viewBox="0 0 104 102" fill="none" xmlns="http://www.w3.org/2000/svg">
<path d="M97.0272 1.62302C91.2324 -1.01186 85.6061 1.37539 82.4561 3.31688C80.616 1.77187 78.4132 0.720315 76.0548 0.261112C73.6964 -0.19809 71.26 -0.0498524 68.9746 0.691896C62.1497 2.98998 59.3563 9.37907 61.7039 17.3431C64.6756 27.6152 78.8207 36.1637 80.4155 37.1542C80.9511 37.4652 81.5594 37.6293 82.1788 37.6297C82.7489 37.6328 83.3107 37.4932 83.8131 37.2236C85.5367 36.3123 100.653 27.9619 103.297 17.2441C104.991 10.2607 102.525 4.12913 97.0272 1.62302ZM96.5616 15.5899C95.1649 21.3351 86.9136 27.318 82.2679 30.1114C77.85 27.1992 70.0246 21.0775 68.4001 15.3918C66.4883 8.86399 70.0642 7.65551 71.243 7.25928C75.8491 5.71402 79.425 9.82482 79.5637 9.98331C79.8614 10.3373 80.2268 10.6283 80.6385 10.8393C81.0501 11.0504 81.4997 11.1771 81.961 11.2122C82.4222 11.2472 82.8858 11.1899 83.3246 11.0435C83.7634 10.8971 84.1686 10.6647 84.5165 10.3597C84.566 10.3102 89.7169 5.90222 94.1843 7.93286C97.7206 9.55737 96.8984 14.2031 96.5814 15.5899H96.5616Z" fill="#00A353"/>
<path d="M73.4817 47.5155C70.2271 40.3971 64.8794 34.4403 58.1518 30.4399C51.4243 26.4394 43.6368 24.5855 35.8283 25.1255C28.0198 25.6654 20.5617 28.5736 14.4488 33.462C8.33585 38.3503 3.8589 44.9865 1.61512 52.4851C-0.62865 59.9837 -0.532538 67.9882 1.89063 75.4308C4.31381 82.8733 8.94883 89.4001 15.1773 94.1403C21.4059 98.8804 28.9317 101.609 36.7509 101.961C44.57 102.313 52.3108 100.273 58.9403 96.1121C59.1183 96.0149 59.2874 95.9022 59.4455 95.7753C62.6513 93.7059 65.5294 91.1684 67.9841 88.2471C68.5532 87.5405 68.8226 86.639 68.7345 85.7361C68.6465 84.8331 68.208 84.0006 67.5131 83.4173C66.8183 82.834 65.9225 82.5462 65.0179 82.6158C64.1134 82.6854 63.2721 83.1068 62.6747 83.7896C60.955 85.8252 58.9885 87.6386 56.8205 89.1881C51.0456 87.108 47.4994 84.5226 46.7763 81.8283C46.4593 80.6099 46.4791 80.3326 48.9159 78.7675C50.3622 77.9835 51.6041 76.8705 52.5413 75.5185C53.7399 73.5374 53.3536 71.3185 52.9871 69.1888C52.4819 66.2964 51.9965 63.3049 54.5819 60.1351C57.6229 56.4602 63.7049 54.3404 68.3308 53.2013C70.4283 59.2718 70.6218 65.8382 68.8855 72.0218C68.6359 72.9072 68.7483 73.8554 69.1978 74.6579C69.6474 75.4604 70.3973 76.0514 71.2827 76.301C72.168 76.5506 73.1162 76.4382 73.9187 75.9887C74.7212 75.5391 75.3123 74.7892 75.5619 73.9039C77.9744 65.32 77.3337 56.165 73.7491 48.0008C73.6693 47.8341 73.58 47.672 73.4817 47.5155ZM38.4754 31.9241C39.1688 31.9241 39.8523 31.9241 40.5457 31.9935C40.3278 37.2137 39.2976 41.1363 37.7028 42.5429C36.6033 43.5334 35.3057 43.6028 33.0868 43.682C30.2043 43.7811 26.252 43.9197 23.0525 47.7136C22.0285 48.849 21.2762 50.2023 20.8523 51.6713C20.4285 53.1403 20.3442 54.6864 20.6058 56.1927C20.7643 57.7974 20.794 58.0946 19.5459 59.1644C18.7931 59.6498 15.2568 60.1549 7.21351 59.1644C8.26665 51.6195 12.01 44.7091 17.7544 39.7056C23.4988 34.702 30.8575 31.9421 38.4754 31.934V31.9241ZM49.2032 55.6974C44.5575 61.3238 45.5381 66.9799 46.1225 70.3577C46.2216 70.9124 46.3405 71.6256 46.3801 72.0812C46.0631 72.3289 45.5282 72.6657 45.1518 72.9133C42.9527 74.3199 38.3764 77.2519 40.0504 83.5717C41.041 87.3952 44.0126 90.6343 48.906 93.2593C44.3614 94.8497 39.5133 95.3792 34.7325 94.8073C29.9518 94.2353 25.3654 92.5771 21.3242 89.9595C17.2831 87.3419 13.8945 83.8343 11.4178 79.7054C8.94111 75.5764 7.442 70.9355 7.03522 66.1379C9.66295 66.4852 12.3092 66.6737 14.9597 66.7025C20.4969 66.7025 22.7355 65.5733 24.0332 64.4441C27.9954 60.9474 27.6982 57.6687 27.4803 55.5291C27.3317 54.0135 27.2723 53.4489 28.3223 52.2107C29.3722 50.9725 30.7689 50.715 33.275 50.6258C35.7811 50.5367 39.2184 50.4178 42.19 47.7631C45.7362 44.6329 46.9942 38.7391 47.3211 33.2416C54.7231 35.451 61.0635 40.2873 65.1511 46.8419C59.4257 48.407 52.997 51.1112 49.2032 55.7173V55.6974Z" fill="#00A353"/>
</svg>
