<svg width="53" height="53" viewBox="0 0 53 53" fill="none" xmlns="http://www.w3.org/2000/svg">
<path d="M2 1.91119V49.1612C2 49.6253 2.18437 50.0704 2.51256 50.3986C2.84075 50.7268 3.28587 50.9112 3.75 50.9112H51" stroke="#00A353" stroke-width="3" stroke-linecap="round" stroke-linejoin="round"/>
<path d="M15.5625 22.9113H11.1875C9.97938 22.9113 9 23.8906 9 25.0988V41.7238C9 42.9319 9.97938 43.9113 11.1875 43.9113H15.5625C16.7706 43.9113 17.75 42.9319 17.75 41.7238V25.0988C17.75 23.8906 16.7706 22.9113 15.5625 22.9113Z" stroke="#00A353" stroke-width="3" stroke-linecap="round" stroke-linejoin="round"/>
<path d="M31.3127 17.6613H26.9377C25.7296 17.6613 24.7502 18.6406 24.7502 19.8488V41.7238C24.7502 42.9319 25.7296 43.9113 26.9377 43.9113H31.3127C32.5209 43.9113 33.5002 42.9319 33.5002 41.7238V19.8488C33.5002 18.6406 32.5209 17.6613 31.3127 17.6613Z" stroke="#00A353" stroke-width="3" stroke-linecap="round" stroke-linejoin="round"/>
<path d="M47.0234 10.6612H42.6484C41.4403 10.6612 40.4609 11.6406 40.4609 12.8487V41.7237C40.4609 42.9318 41.4403 43.9112 42.6484 43.9112H47.0234C48.2316 43.9112 49.2109 42.9318 49.2109 41.7237V12.8487C49.2109 11.6406 48.2316 10.6612 47.0234 10.6612Z" stroke="#00A353" stroke-width="3" stroke-linecap="round" stroke-linejoin="round"/>
</svg>
