<svg width="63" height="50" viewBox="0 0 63 50" fill="none" xmlns="http://www.w3.org/2000/svg">
<path fill-rule="evenodd" clip-rule="evenodd" d="M10.7879 1.64905H49.2655C52.808 1.64905 55.6784 4.51947 55.6784 8.06198V41.4092C55.6784 44.9517 52.808 47.8221 49.2655 47.8221H10.7879C7.24543 47.8221 4.375 44.9517 4.375 41.4092V8.06198C4.375 4.51947 7.24543 1.64905 10.7879 1.64905ZM53.1124 15.7576C52.0402 14.9521 50.7089 14.475 49.2647 14.475H47.8538C47.2587 11.5481 44.6705 9.34466 41.5692 9.34466H18.4826C15.3813 9.34466 12.7931 11.5481 12.198 14.475H10.7871C8.66058 14.475 6.93935 12.7538 6.93935 10.6272V8.06208C6.93935 5.93555 8.66058 4.21432 10.7871 4.21432H49.2647C51.3912 4.21432 53.1124 5.93555 53.1124 8.06208V15.7576ZM14.8533 14.475C15.3817 12.9795 16.8079 11.9098 18.483 11.9098H41.5695C43.2446 11.9098 44.6708 12.9795 45.1992 14.475H14.8533ZM44.1343 24.7357H53.1124V20.8879C53.1124 18.764 51.3912 17.0402 49.2647 17.0402H10.7871C9.34292 17.0402 8.01159 16.5631 6.93935 15.7576V41.4093C6.93935 43.5333 8.66058 45.2571 10.7871 45.2571H49.2647C51.3912 45.2571 53.1124 43.5333 53.1124 41.4093V37.5615H44.1343C40.5918 37.5615 37.7214 34.6911 37.7214 31.1486C37.7214 27.6061 40.5918 24.7357 44.1343 24.7357ZM53.1141 34.9964H44.136C42.0094 34.9964 40.2882 33.2726 40.2882 31.1486C40.2882 29.0247 42.0094 27.3009 44.136 27.3009H53.1141V34.9964Z" fill="#00A353"/>
<path d="M53.1124 15.7576L52.9623 15.9575L53.3624 16.2581V15.7576H53.1124ZM47.8538 14.475L47.6088 14.5248L47.6495 14.725H47.8538V14.475ZM12.198 14.475V14.725H12.4022L12.4429 14.5248L12.198 14.475ZM14.8533 14.475L14.6175 14.3917L14.4998 14.725H14.8533V14.475ZM45.1992 14.475V14.725H45.5527L45.435 14.3917L45.1992 14.475ZM53.1124 24.7357V24.9857H53.3624V24.7357H53.1124ZM6.93935 15.7576L7.08951 15.5577L6.68935 15.2571V15.7576H6.93935ZM53.1124 37.5615H53.3624V37.3115H53.1124V37.5615ZM53.1141 34.9964V35.2464H53.3641V34.9964H53.1141ZM53.1141 27.3009H53.3641V27.0509H53.1141V27.3009ZM49.2655 1.39905H10.7879V1.89905H49.2655V1.39905ZM55.9284 8.06198C55.9284 4.3814 52.9461 1.39905 49.2655 1.39905V1.89905C52.6699 1.89905 55.4284 4.65755 55.4284 8.06198H55.9284ZM55.9284 41.4092V8.06198H55.4284V41.4092H55.9284ZM49.2655 48.0721C52.9461 48.0721 55.9284 45.0898 55.9284 41.4092H55.4284C55.4284 44.8136 52.6699 47.5721 49.2655 47.5721V48.0721ZM10.7879 48.0721H49.2655V47.5721H10.7879V48.0721ZM4.125 41.4092C4.125 45.0898 7.10735 48.0721 10.7879 48.0721V47.5721C7.3835 47.5721 4.625 44.8136 4.625 41.4092H4.125ZM4.125 8.06198V41.4092H4.625V8.06198H4.125ZM10.7879 1.39905C7.10735 1.39905 4.125 4.3814 4.125 8.06198H4.625C4.625 4.65755 7.3835 1.89905 10.7879 1.89905V1.39905ZM49.2647 14.725C50.6528 14.725 51.9318 15.1834 52.9623 15.9575L53.2626 15.5577C52.1486 14.7209 50.7649 14.225 49.2647 14.225V14.725ZM47.8538 14.725H49.2647V14.225H47.8538V14.725ZM41.5692 9.59466C44.5492 9.59466 47.0369 11.7121 47.6088 14.5248L48.0988 14.4252C47.4805 11.3842 44.7917 9.09466 41.5692 9.09466V9.59466ZM18.4826 9.59466H41.5692V9.09466H18.4826V9.59466ZM12.4429 14.5248C13.0149 11.7121 15.5026 9.59466 18.4826 9.59466V9.09466C15.2601 9.09466 12.5713 11.3842 11.953 14.4252L12.4429 14.5248ZM10.7871 14.725H12.198V14.225H10.7871V14.725ZM6.68935 10.6272C6.68935 12.8918 8.52251 14.725 10.7871 14.725V14.225C8.79865 14.225 7.18935 12.6157 7.18935 10.6272H6.68935ZM6.68935 8.06208V10.6272H7.18935V8.06208H6.68935ZM10.7871 3.96432C8.52251 3.96432 6.68935 5.79748 6.68935 8.06208H7.18935C7.18935 6.07362 8.79865 4.46432 10.7871 4.46432V3.96432ZM49.2647 3.96432H10.7871V4.46432H49.2647V3.96432ZM53.3624 8.06208C53.3624 5.79748 51.5293 3.96432 49.2647 3.96432V4.46432C51.2531 4.46432 52.8624 6.07362 52.8624 8.06208H53.3624ZM53.3624 15.7576V8.06208H52.8624V15.7576H53.3624ZM18.483 11.6598C16.6988 11.6598 15.1802 12.7993 14.6175 14.3917L15.089 14.5583C15.5832 13.1597 16.917 12.1598 18.483 12.1598V11.6598ZM41.5695 11.6598H18.483V12.1598H41.5695V11.6598ZM45.435 14.3917C44.8723 12.7993 43.3537 11.6598 41.5695 11.6598V12.1598C43.1355 12.1598 44.4693 13.1597 44.9635 14.5583L45.435 14.3917ZM14.8533 14.725H45.1992V14.225H14.8533V14.725ZM53.1124 24.4857H44.1343V24.9857H53.1124V24.4857ZM52.8624 20.8879V24.7357H53.3624V20.8879H52.8624ZM49.2647 17.2902C51.253 17.2902 52.8624 18.9019 52.8624 20.8879H53.3624C53.3624 18.626 51.5294 16.7902 49.2647 16.7902V17.2902ZM10.7871 17.2902H49.2647V16.7902H10.7871V17.2902ZM6.7892 15.9575C7.90321 16.7943 9.28688 17.2902 10.7871 17.2902V16.7902C9.39896 16.7902 8.11998 16.3318 7.08951 15.5577L6.7892 15.9575ZM7.18935 41.4093V15.7576H6.68935V41.4093H7.18935ZM10.7871 45.0071C8.79876 45.0071 7.18935 43.3953 7.18935 41.4093H6.68935C6.68935 43.6712 8.5224 45.5071 10.7871 45.5071V45.0071ZM49.2647 45.0071H10.7871V45.5071H49.2647V45.0071ZM52.8624 41.4093C52.8624 43.3953 51.253 45.0071 49.2647 45.0071V45.5071C51.5294 45.5071 53.3624 43.6712 53.3624 41.4093H52.8624ZM52.8624 37.5615V41.4093H53.3624V37.5615H52.8624ZM44.1343 37.8115H53.1124V37.3115H44.1343V37.8115ZM37.4714 31.1486C37.4714 34.8292 40.4538 37.8115 44.1343 37.8115V37.3115C40.7299 37.3115 37.9714 34.553 37.9714 31.1486H37.4714ZM44.1343 24.4857C40.4538 24.4857 37.4714 27.468 37.4714 31.1486H37.9714C37.9714 27.7442 40.7299 24.9857 44.1343 24.9857V24.4857ZM44.136 35.2464H53.1141V34.7464H44.136V35.2464ZM40.0382 31.1486C40.0382 33.4105 41.8713 35.2464 44.136 35.2464V34.7464C42.1476 34.7464 40.5382 33.1346 40.5382 31.1486H40.0382ZM44.136 27.0509C41.8713 27.0509 40.0382 28.8867 40.0382 31.1486H40.5382C40.5382 29.1626 42.1476 27.5509 44.136 27.5509V27.0509ZM53.1141 27.0509H44.136V27.5509H53.1141V27.0509ZM53.3641 34.9964V27.3009H52.8641V34.9964H53.3641Z" fill="#00A353"/>
</svg>
