<svg width="39" height="55" viewBox="0 0 39 55" fill="none" xmlns="http://www.w3.org/2000/svg">
<path d="M33.33 2H5.91625C3.75336 2 2 3.75336 2 5.91625V48.995C2 51.1579 3.75336 52.9112 5.91625 52.9112H33.33C35.4929 52.9112 37.2462 51.1579 37.2462 48.995V5.91625C37.2462 3.75336 35.4929 2 33.33 2Z" stroke="#00A353" stroke-width="3" stroke-linecap="round" stroke-linejoin="round"/>
<path d="M7.87573 9.83252H31.372V17.665H7.87573V9.83252Z" stroke="#00A353" stroke-width="3" stroke-linecap="round" stroke-linejoin="round"/>
<path d="M10.2906 26.4766C10.2906 27.2703 9.64718 27.9137 8.85345 27.9137C8.05971 27.9137 7.41626 27.2703 7.41626 26.4766C7.41626 25.6828 8.05971 25.0394 8.85345 25.0394C9.64718 25.0394 10.2906 25.6828 10.2906 26.4766Z" fill="#00A353" stroke="#00A353" stroke-width="3"/>
<path d="M21.0604 26.4766C21.0604 27.2703 20.417 27.9137 19.6232 27.9137C18.8295 27.9137 18.186 27.2703 18.186 26.4766C18.186 25.6828 18.8295 25.0394 19.6232 25.0394C20.417 25.0394 21.0604 25.6828 21.0604 26.4766Z" fill="#00A353" stroke="#00A353" stroke-width="3"/>
<path d="M31.8299 26.4766C31.8299 27.2703 31.1865 27.9137 30.3928 27.9137C29.599 27.9137 28.9556 27.2703 28.9556 26.4766C28.9556 25.6828 29.599 25.0394 30.3928 25.0394C31.1865 25.0394 31.8299 25.6828 31.8299 26.4766Z" fill="#00A353" stroke="#00A353" stroke-width="3"/>
<path d="M10.2906 36.2672C10.2906 37.0609 9.64718 37.7044 8.85345 37.7044C8.05971 37.7044 7.41626 37.0609 7.41626 36.2672C7.41626 35.4735 8.05971 34.83 8.85345 34.83C9.64718 34.83 10.2906 35.4735 10.2906 36.2672Z" fill="#00A353" stroke="#00A353" stroke-width="3"/>
<path d="M21.0604 36.2672C21.0604 37.0609 20.417 37.7044 19.6232 37.7044C18.8295 37.7044 18.186 37.0609 18.186 36.2672C18.186 35.4735 18.8295 34.83 19.6232 34.83C20.417 34.83 21.0604 35.4735 21.0604 36.2672Z" fill="#00A353" stroke="#00A353" stroke-width="3"/>
<path d="M10.2906 46.0578C10.2906 46.8515 9.64718 47.495 8.85345 47.495C8.05971 47.495 7.41626 46.8515 7.41626 46.0578C7.41626 45.2641 8.05971 44.6206 8.85345 44.6206C9.64718 44.6206 10.2906 45.2641 10.2906 46.0578Z" fill="#00A353" stroke="#00A353" stroke-width="3"/>
<path d="M21.0604 46.0578C21.0604 46.8515 20.417 47.495 19.6232 47.495C18.8295 47.495 18.186 46.8515 18.186 46.0578C18.186 45.2641 18.8295 44.6206 19.6232 44.6206C20.417 44.6206 21.0604 45.2641 21.0604 46.0578Z" fill="#00A353" stroke="#00A353" stroke-width="3"/>
<path d="M33.3299 36.2672C33.3299 34.645 32.0149 33.33 30.3928 33.33C28.7706 33.33 27.4556 34.645 27.4556 36.2672V46.0578C27.4556 47.68 28.7706 48.995 30.3928 48.995C32.0149 48.995 33.3299 47.68 33.3299 46.0578V36.2672Z" fill="#00A353"/>
</svg>
