<svg width="49" height="49" viewBox="0 0 49 49" fill="none" xmlns="http://www.w3.org/2000/svg">
<path d="M7.39936 9.41141C3.76103 13.475 1.72403 18.7228 1.6679 24.1769C1.52962 36.6397 11.7047 46.8877 24.1672 46.9112C36.6121 46.9346 46.6665 36.853 46.6665 24.4113C46.6665 12.1606 36.8758 2.19153 24.6945 1.91146C24.626 1.90925 24.5577 1.92088 24.4937 1.94564C24.4297 1.97041 24.3714 2.0078 24.3222 2.05559C24.273 2.10338 24.2339 2.16059 24.2073 2.22381C24.1806 2.28703 24.167 2.35497 24.1672 2.42356V12.2239" stroke="#00A353" stroke-width="3" stroke-linecap="round" stroke-linejoin="round"/>
<path d="M21.5164 27.0632L12.2589 13.8211C12.1308 13.6377 12.0714 13.415 12.0911 13.1921C12.1108 12.9692 12.2082 12.7603 12.3664 12.6021C12.5247 12.4439 12.7335 12.3464 12.9564 12.3267C13.1793 12.3071 13.402 12.3665 13.5854 12.4946L26.8272 21.7523C27.6394 22.3373 28.1887 23.2185 28.3562 24.2054C28.5237 25.1922 28.296 26.2053 27.7224 27.0256C27.1487 27.8458 26.2752 28.4073 25.2908 28.5884C24.3064 28.7696 23.2902 28.556 22.4621 27.9937C22.096 27.7399 21.7761 27.4252 21.5164 27.0632Z" fill="#00A353"/>
</svg>