<svg width="82" height="113" viewBox="0 0 82 113" fill="none" xmlns="http://www.w3.org/2000/svg">
<path d="M18.8403 71.7297L2.65356 72.973V77.946L8.87925 81.0541L13.2372 89.7568L10.1244 95.973L17.5952 102.811L23.8209 100.324L32.5368 104.676L35.6497 110.892H45.6108L48.7236 104.676L57.4396 100.324L64.2878 102.811L71.1361 95.973L68.6458 90.3784L73.0038 79.8108L78.6069 77.946V72.973H59.9298C59.3073 78.1532 54.8248 89.0108 41.8754 91C28.9259 92.9892 21.1231 78.982 18.8403 71.7297Z" fill="#0071CA"/>
<path d="M79.1704 70.3076H59.9004C59.3894 70.3076 58.899 70.5108 58.5377 70.8725C58.1764 71.2342 57.9734 71.7251 57.9734 72.2366C57.9734 78.4396 54.6682 84.1706 49.3019 87.2715C43.9356 90.3725 37.3252 90.3725 31.9589 87.2715C26.5925 84.1706 23.2873 78.4396 23.2873 72.2366C23.2873 71.7251 23.0843 71.2342 22.723 70.8725C22.3617 70.5109 21.8713 70.3076 21.3603 70.3076H2.09033C1.57933 70.3076 1.08897 70.5108 0.727666 70.8725C0.366359 71.2342 0.16333 71.7251 0.16333 72.2366C0.170212 74.2026 0.318176 76.166 0.607222 78.1107C0.716475 78.8573 1.24985 79.4722 1.97332 79.6857L7.11434 81.185H7.1152C7.90234 84.1466 9.08092 86.9892 10.619 89.6391L8.03312 94.3375C7.66923 94.9988 7.72515 95.8109 8.1742 96.4172C10.5192 99.5785 13.3161 102.378 16.4748 104.725C17.0805 105.174 17.8926 105.229 18.5524 104.864L23.2435 102.28L23.2443 102.279C25.8915 103.819 28.7329 104.999 31.6912 105.787L33.1907 110.93L33.1915 110.929C33.3997 111.648 34.0053 112.182 34.7443 112.297C38.6439 112.91 42.6166 112.91 46.5162 112.297C47.2552 112.181 47.8608 111.648 48.069 110.929L49.5684 105.787L49.5693 105.787C52.5279 104.999 55.3692 103.819 58.0162 102.279L62.7073 104.864L62.7081 104.864C63.3671 105.232 64.1809 105.178 64.7857 104.725C67.9446 102.378 70.7413 99.5785 73.0863 96.4172C73.5354 95.8109 73.5913 94.9988 73.2274 94.3375L70.6415 89.6391C72.1796 86.9892 73.3582 84.1466 74.1453 81.185L79.2863 79.6857H79.2872C80.0107 79.4722 80.544 78.8573 80.6533 78.1107C80.9423 76.1662 81.0903 74.2026 81.0972 72.2366C81.0972 71.7251 80.8942 71.2342 80.5328 70.8725C80.1715 70.5109 79.6814 70.3076 79.1704 70.3076ZM76.9991 76.3323L72.0025 77.7902C71.3332 77.9874 70.8214 78.53 70.6648 79.2103C69.8983 82.5266 68.5872 85.6912 66.7841 88.577C66.4134 89.1686 66.3927 89.9161 66.7291 90.5284L69.2437 95.0908C67.5412 97.2316 65.6022 99.1736 63.4627 100.878L58.9033 98.365C58.2916 98.0231 57.5432 98.0438 56.9513 98.4175C54.0703 100.223 50.9087 101.536 47.5967 102.302C46.9171 102.46 46.3759 102.973 46.1798 103.643L44.7199 108.65L44.7191 108.651C42.0032 108.982 39.2572 108.982 36.5413 108.651L35.0814 103.644L35.0806 103.643C34.8844 102.973 34.3433 102.46 33.6637 102.302C30.3517 101.536 27.1901 100.222 24.309 98.4175C23.7163 98.0455 22.9688 98.0248 22.3571 98.365L17.7977 100.878C15.6582 99.1735 13.7191 97.2316 12.0167 95.0908L14.5304 90.5284C14.8676 89.9161 14.847 89.1686 14.4762 88.5762C12.6731 85.6913 11.3619 82.5266 10.5955 79.2103C10.439 78.53 9.9271 77.9874 9.25783 77.7902L4.26128 76.3323C4.17611 75.5977 4.11417 74.8752 4.07288 74.1656H19.5191C20.1668 81.259 24.3253 87.5539 30.5933 90.9263C36.8603 94.2986 44.3996 94.2986 50.6667 90.9263C56.9337 87.5539 61.0932 81.2588 61.74 74.1656H77.1862C77.1449 74.8743 77.0821 75.596 76.9986 76.3323L76.9991 76.3323Z" fill="#0071CA"/>
<path d="M65.6814 55.224V52.948C65.6719 52.2134 65.2564 51.5443 64.6026 51.2119L57.9733 47.8938V43.303H59.9003C64.5869 43.3021 68.9373 40.8658 71.3918 36.8692C73.8462 32.8725 74.0535 27.8865 71.9381 23.7004C69.8227 19.5135 65.6882 16.725 61.0178 16.3359C59.2216 9.92189 54.516 4.72661 48.315 2.3093C42.1143 -0.108005 35.1383 0.53445 29.4819 4.04368C23.8256 7.55291 20.1462 13.5207 19.5492 20.1551C16.4728 20.125 13.5127 21.3237 11.3217 23.4851C9.13055 25.6457 7.89093 28.5917 7.87551 31.6704C7.86003 34.75 9.07043 37.7081 11.2399 39.891C13.4087 42.0741 16.3576 43.3022 19.4331 43.303H23.2871V47.8938L16.6578 51.2119H16.6587C16.004 51.5443 15.5885 52.2135 15.579 52.948V55.224C13.8507 55.8354 12.5148 57.2314 11.9787 58.9863C11.4419 60.7414 11.768 62.6464 12.8588 64.1214C13.9487 65.5966 15.6726 66.4673 17.5061 66.4673C19.3395 66.4673 21.0641 65.5967 22.154 64.1214C23.2439 62.6463 23.5708 60.7414 23.034 58.9863C22.4972 57.2313 21.1612 55.8353 19.4329 55.224V54.1441L26.0622 50.826C26.716 50.4936 27.1324 49.8245 27.1409 49.0899V43.303H38.703V66.797C36.9747 67.4084 35.6387 68.8044 35.1027 70.5593C34.5658 72.3144 34.8919 74.2194 35.9827 75.6944C37.0727 77.1696 38.7966 78.0403 40.63 78.0403C42.4634 78.0403 44.188 77.1697 45.2779 75.6944C46.3679 74.2193 46.6948 72.3144 46.158 70.5593C45.6212 68.8043 44.2852 67.4083 42.5568 66.797V43.303H54.1188V49.0899C54.1283 49.8245 54.5438 50.4936 55.1984 50.826L61.8277 54.1441V55.224H61.8269C60.0986 55.8354 58.7626 57.2314 58.2266 58.9863C57.6898 60.7414 58.0158 62.6464 59.1066 64.1214C60.1966 65.5966 61.9205 66.4673 63.7539 66.4673C65.5873 66.4673 67.3119 65.5967 68.4018 64.1214C69.4918 62.6463 69.8187 60.7414 69.2819 58.9863C68.7451 57.2313 67.4091 55.8353 65.6807 55.224L65.6814 55.224ZM19.4333 39.445C16.6796 39.445 14.1348 37.9741 12.7577 35.587C11.3813 33.1999 11.3813 30.2581 12.7577 27.871C14.135 25.4839 16.6798 24.013 19.4333 24.013C19.9512 24.0053 20.4691 24.057 20.9749 24.1672C21.5556 24.255 22.1466 24.0862 22.5939 23.7047C23.0447 23.2879 23.2968 22.698 23.2873 22.084C23.2865 16.292 26.1719 10.8804 30.9799 7.65712C35.7879 4.43471 41.8856 3.82492 47.2354 6.03211C52.5855 8.23933 56.4824 12.9721 57.6267 18.6506C57.8142 19.5462 58.6005 20.1895 59.515 20.1938C59.5924 20.1938 59.7843 20.1551 59.9778 20.1551C63.4198 20.1688 66.5933 22.0203 68.3027 25.0111C70.012 28.0018 69.9974 31.679 68.264 34.656C66.5314 37.6331 63.3432 39.4587 59.9004 39.445L19.4333 39.445Z" fill="#0071CA"/>
</svg>
