<svg width="81" height="113" viewBox="0 0 81 113" fill="none" xmlns="http://www.w3.org/2000/svg">
<path d="M79.0402 70.3989H59.7702C59.2592 70.3989 58.7688 70.6022 58.4075 70.9639C58.0462 71.3256 57.8432 71.8165 57.8432 72.328C57.8432 78.5314 54.538 84.2628 49.1717 87.3639C43.8054 90.466 37.195 90.466 31.8287 87.3639C26.4624 84.2628 23.1572 78.5314 23.1572 72.328C23.1572 71.8165 22.9542 71.3256 22.5929 70.9639C22.2316 70.6022 21.7412 70.3989 21.2302 70.3989H1.9602C1.44921 70.3989 0.958846 70.6022 0.597539 70.9639C0.236232 71.3256 0.0332031 71.8165 0.0332031 72.328C0.0409455 74.2942 0.18891 76.2577 0.477095 78.2025C0.587209 78.95 1.1223 79.5641 1.84751 79.7734L6.985 81.277C7.77129 84.2388 8.94986 87.0825 10.4888 89.7316L7.9071 94.4303C7.54062 95.0909 7.59568 95.9047 8.04646 96.5102C10.3908 99.6726 13.1866 102.473 16.3447 104.822C16.9503 105.271 17.7624 105.326 18.4222 104.961L23.1157 102.372V102.373C25.7629 103.913 28.6025 105.093 31.5611 105.881L33.0631 111.024V111.023C33.2713 111.742 33.8752 112.275 34.6142 112.392C38.5146 113.004 42.4864 113.004 46.3869 112.392C47.125 112.275 47.7298 111.742 47.9371 111.023L49.4392 105.88V105.881C52.3977 105.093 55.2382 103.913 57.8845 102.373L62.578 104.962V104.961C63.2378 105.325 64.0499 105.271 64.6555 104.822C67.8136 102.473 70.6094 99.6726 72.9546 96.5102C73.4054 95.9047 73.4596 95.0909 73.094 94.4303L70.5123 89.7316H70.5114C72.0504 87.0825 73.229 84.2388 74.0161 81.277L79.1536 79.7734H79.1527C79.8779 79.5641 80.413 78.95 80.5232 78.2025C80.8113 76.2579 80.9593 74.2942 80.9671 72.328C80.9671 71.8165 80.764 71.3256 80.4027 70.9639C80.0414 70.6022 79.5512 70.3989 79.0402 70.3989ZM76.8689 76.424L71.8741 77.8863V77.8854C71.2039 78.0792 70.6904 78.6218 70.5347 79.3021C69.7682 82.6187 68.4571 85.7835 66.654 88.6695C66.2815 89.2612 66.2617 90.0095 66.6015 90.621L69.1117 95.1872C67.4084 97.3273 65.4702 99.2686 63.3342 100.975L58.7731 98.4581C58.1623 98.1162 57.4147 98.1369 56.8237 98.5106C53.9409 100.316 50.7786 101.628 47.4666 102.396C46.787 102.551 46.245 103.066 46.0515 103.736L44.5873 108.744V108.744C41.8723 109.076 39.1281 109.076 36.4131 108.744L34.9489 103.737V103.736C34.7554 103.066 34.2134 102.551 33.5338 102.396C30.2218 101.628 27.0595 100.316 24.1776 98.5106C23.5849 98.1403 22.839 98.1196 22.2274 98.4581L17.6662 100.975C15.5302 99.2685 13.592 97.3273 11.8887 95.1872L14.3989 90.621H14.3998C14.7387 90.0096 14.7189 89.2612 14.3464 88.6695C12.5442 85.7835 11.2322 82.6187 10.4658 79.3021C10.3101 78.6218 9.79647 78.0792 9.12634 77.8854L4.13156 76.4231C4.04897 75.6885 3.98617 74.9659 3.94315 74.2563H19.3893V74.2571C20.0371 81.351 24.1956 87.6463 30.4635 91.0189C36.7306 94.3923 44.2699 94.3923 50.5369 91.0189C56.804 87.6463 60.9634 81.3508 61.6102 74.2571H77.0564C77.0151 74.9659 76.9523 75.6876 76.8689 76.424Z" fill="#00A353"/>
<path d="M59.7701 43.3999C64.4544 43.3999 68.8021 40.9679 71.2573 36.9743C73.7124 32.9809 73.9225 27.9987 71.8121 23.8124C69.7019 19.627 65.5735 16.8365 60.9064 16.4412C59.6487 11.9903 56.9758 8.07186 53.294 5.27805C49.6122 2.48425 45.1206 0.967628 40.5 0.959029C36.7597 0.951278 33.0862 1.94599 29.8603 3.84147C28.939 4.37628 28.6258 5.55699 29.1601 6.47852C29.6943 7.40088 30.8737 7.71437 31.7951 7.17955C34.4335 5.62849 37.4402 4.81301 40.5001 4.8172C44.5012 4.82409 48.3777 6.21322 51.4736 8.74952C54.5705 11.2858 56.6981 14.8142 57.4973 18.7395C57.678 19.6403 58.4686 20.288 59.3865 20.288C59.5155 20.2888 59.6437 20.2759 59.7702 20.2501C63.2121 20.2501 66.3933 22.0887 68.1139 25.0729C69.8353 28.0569 69.8353 31.7344 68.1139 34.7185C66.3934 37.7025 63.2121 39.5413 59.7702 39.5413H55.9532L55.9162 39.5335L55.8792 39.5413H40.5372L40.5002 39.5335L40.4632 39.5413H25.1212L25.0842 39.5335L25.0472 39.5413H19.3032C17.2601 39.5387 15.3003 38.7248 13.8561 37.2779C12.4108 35.8319 11.5978 33.8701 11.5952 31.8248C11.6494 29.5116 12.717 27.3386 14.515 25.8842C16.3121 24.4287 18.6579 23.8388 20.9291 24.2703C21.4909 24.3719 22.069 24.2186 22.506 23.8517C22.9439 23.4857 23.196 22.9432 23.1951 22.3713C23.1925 22.2473 23.1796 22.1241 23.1572 22.0019C23.1676 20.6782 23.3405 19.3613 23.6725 18.0799C23.9452 17.0499 23.3319 15.994 22.303 15.7211C21.2741 15.4489 20.2194 16.063 19.9467 17.093C19.6758 18.1282 19.4908 19.184 19.3936 20.2501H19.3033C15.1722 20.2501 11.3552 22.4566 9.29058 26.0375C7.22508 29.6184 7.22508 34.0313 9.29058 37.6122C11.3552 41.1931 15.1722 43.3996 19.3033 43.3996H23.1573V47.9889L16.5143 51.3123V51.3114C15.8622 51.6396 15.4502 52.307 15.4493 53.0373V55.322C13.721 55.9335 12.385 57.3295 11.8481 59.0846C11.3122 60.8389 11.6382 62.7448 12.7282 64.22C13.819 65.6953 15.5429 66.566 17.3761 66.566C19.2093 66.566 20.9332 65.6954 22.024 64.22C23.114 62.7448 23.44 60.8389 22.9041 59.0846C22.3673 57.3294 21.0313 55.9334 19.3029 55.322V54.2283L25.9459 50.9049C26.5979 50.5777 27.01 49.9094 27.0109 49.1791V43.3994H38.5729V66.8972C36.8446 67.5087 35.5086 68.9047 34.9717 70.6597C34.4358 72.414 34.7618 74.32 35.8518 75.7952C36.9426 77.2704 38.6665 78.1412 40.4997 78.1412C42.3329 78.1412 44.0568 77.2705 45.1476 75.7952C46.2376 74.3199 46.5636 72.414 46.0277 70.6597C45.4908 68.9046 44.1549 67.5086 42.4265 66.8972V43.3994H53.9885V49.1791C53.9893 49.9094 54.4014 50.5768 55.0535 50.9049L61.6965 54.2283V55.322C59.9682 55.9335 58.6322 57.3295 58.0953 59.0846C57.5593 60.8389 57.8854 62.7448 58.9753 64.22C60.0662 65.6953 61.7901 66.566 63.6233 66.566C65.4564 66.566 67.1804 65.6954 68.2712 64.22C69.3611 62.7448 69.6872 60.8389 69.1512 59.0846C68.6144 57.3294 67.2784 55.9334 65.5501 55.322V53.0373C65.5492 52.307 65.1371 51.6396 64.4851 51.3114L57.8421 47.9889V43.3996L59.7701 43.3999ZM17.3761 62.6834C16.5967 62.6834 15.8939 62.2132 15.5962 61.4923C15.2977 60.7715 15.462 59.9422 16.0135 59.3901C16.5649 58.838 17.3933 58.6736 18.1134 58.9724C18.8334 59.2704 19.3031 59.974 19.3031 60.7543C19.3014 61.8187 18.4394 62.6817 17.3761 62.6834ZM40.5001 74.2581C39.7207 74.2581 39.0179 73.7879 38.7202 73.067C38.4217 72.3462 38.586 71.5169 39.1375 70.9648C39.6889 70.4128 40.5173 70.2483 41.2374 70.5471C41.9574 70.8451 42.4271 71.5487 42.4271 72.329C42.4254 73.3934 41.5634 74.2564 40.5001 74.2581ZM63.6241 62.6834C62.8447 62.6834 62.1419 62.2132 61.8442 61.4923C61.5457 60.7715 61.71 59.9422 62.2615 59.3901C62.8129 58.838 63.6413 58.6736 64.3614 58.9724C65.0814 59.2704 65.5511 59.974 65.5511 60.7543C65.5494 61.8187 64.6874 62.6817 63.6241 62.6834Z" fill="#00A353"/>
<path d="M27.0115 10.6049C27.0115 11.6702 26.1486 12.534 25.0845 12.534C24.0203 12.534 23.1575 11.6702 23.1575 10.6049C23.1575 9.53959 24.0203 8.67578 25.0845 8.67578C26.1486 8.67578 27.0115 9.53959 27.0115 10.6049Z" fill="#00A353"/>
</svg>
