<svg width="111" height="108" viewBox="0 0 111 108" fill="none" xmlns="http://www.w3.org/2000/svg">
<path d="M105.155 81.7447C104.295 81.7447 103.434 81.9119 102.574 82.4142L101.196 81.0752V67.1853C114.449 58.4835 110.318 38.7373 95.1729 35.558C103.779 3.93076 57.8251 -13.3069 42.6786 15.6441C30.6307 12.4646 18.5827 22.6726 20.4773 35.2233C0.168416 32.7132 -7.57621 60.6597 11.1829 68.5251V81.076L9.80576 82.415C9.118 82.0799 8.25749 81.7455 7.39698 81.7455C4.29893 81.7455 1.88933 84.2556 1.88933 87.2679C1.71739 90.2801 4.29893 92.7902 7.39698 92.7902C10.495 92.7902 12.9046 90.2801 12.9046 87.2679C12.9046 86.4312 12.7327 85.5945 12.2161 84.7578L14.281 82.9165C14.6249 82.5821 14.7977 82.247 14.7977 81.7454V69.5296C16.002 69.6968 17.0352 69.864 18.2397 69.864H20.9932V79.9048L18.5836 82.2476C18.2397 82.582 18.0669 82.9171 18.0669 83.4187V91.6182C16.002 92.4548 14.281 94.4634 14.281 96.8062C14.281 99.8185 16.6906 102.329 19.7887 102.329C22.8867 102.329 25.2963 99.8185 25.2963 96.8062C25.2963 94.4634 23.7473 92.2878 21.5096 91.6182V84.0873L23.9192 81.7444C24.2631 81.41 24.4358 81.0749 24.4358 80.5734V69.863H33.5576V101.325C33.5576 105.006 36.4838 107.851 40.2697 107.851H72.2827C75.8966 107.851 78.9949 104.839 78.9949 101.325L78.9956 69.8649H88.1174V80.5753C88.1174 81.0777 88.2893 81.412 88.634 81.7464L91.0436 84.0892V91.6201C88.806 92.2896 87.2569 94.2973 87.2569 96.8082C87.2569 99.8204 89.8385 102.331 92.7645 102.331C95.8626 102.331 98.2722 99.8204 98.2722 96.8082C98.2722 94.4653 96.7231 92.2897 94.4855 91.6201V83.4206C94.4855 82.9183 94.3135 82.584 93.9688 82.2496L91.5592 79.9067V69.8659C93.7968 69.8659 95.8618 69.5316 97.7556 68.6949V81.5801C97.7556 82.0824 97.9275 82.4168 98.2722 82.7512L100.165 84.7597C99.8213 85.4292 99.4766 86.2659 99.4766 87.2698C99.4766 90.2821 102.058 92.7922 104.984 92.7922C108.082 92.7922 110.492 90.2821 110.492 87.2698C110.664 84.2568 108.082 81.7467 105.156 81.7467L105.155 81.7447ZM7.39601 89.4427C6.19161 89.4427 5.33023 88.4388 5.33023 87.2671C5.33023 86.096 6.19074 85.0915 7.39601 85.0915C8.6004 85.0915 9.46178 86.0953 9.46178 87.2671C9.46099 88.4381 8.42853 89.4427 7.39601 89.4427ZM19.9598 98.9812C18.7554 98.9812 17.894 97.9773 17.894 96.8055C17.894 95.6345 18.7546 94.6299 19.9598 94.6299C21.1642 94.6299 22.0256 95.6338 22.0256 96.8055C22.0256 97.9766 20.9923 98.9812 19.9598 98.9812ZM92.5905 98.9812C91.3861 98.9812 90.5247 97.9773 90.5247 96.8055C90.5247 95.6345 91.5572 94.6299 92.5905 94.6299C93.7949 94.6299 94.6563 95.6338 94.6563 96.8055C94.6555 97.9766 93.623 98.9812 92.5905 98.9812ZM75.3787 48.2761H36.9984V46.77C36.9984 44.9294 38.3755 43.5905 40.2685 43.5905H72.2814C74.0025 43.5905 75.5515 45.0966 75.5515 46.77L75.5523 48.2761H75.3787ZM36.9984 51.6237H75.3787V91.4516H36.9984V51.6237ZM72.2812 104.504H40.2683C38.5472 104.504 36.9982 102.998 36.9982 101.325V94.7984H75.3785V101.325C75.3785 102.998 74.0023 104.504 72.2812 104.504ZM78.8214 66.5163V46.7699C78.8214 43.0881 75.8951 40.2437 72.1092 40.2437H40.2687C36.6548 40.2437 33.5565 43.2559 33.5565 46.7699V66.5163H18.2385C-3.27526 66.5163 1.1995 33.0469 22.1972 38.9045C22.8858 39.0717 23.4016 38.9045 23.9182 38.4022C24.4348 37.8999 24.6068 37.3983 24.2621 36.7288C20.6482 25.3498 32.1793 15.31 42.8502 19.1579C43.7107 19.4923 44.5712 19.1579 45.0878 18.3212C58.168 -9.6258 101.024 7.27653 91.2127 36.2272C90.8688 37.2311 91.5566 38.4029 92.7618 38.4029C110.661 39.909 109.629 66.5175 91.5574 66.5175L78.8214 66.5163ZM105.155 89.4439C103.95 89.4439 103.089 88.44 103.089 87.2683C103.089 86.0972 104.121 85.0926 105.155 85.0926C106.359 85.0926 107.22 86.0965 107.22 87.2683C107.22 88.4393 106.187 89.4439 105.155 89.4439Z" fill="#00A353"/>
</svg>
