<svg width="41" height="40" viewBox="0 0 41 40" fill="none" xmlns="http://www.w3.org/2000/svg">
<rect x="1.69287" y="1" width="38" height="38" rx="12" fill="#DDDDDD"/>
<path d="M39.6929 11.5556V28.4444C39.6929 34.2741 34.9669 39 29.1373 39H12.2484C6.41876 39 1.69287 34.2741 1.69287 28.4444V11.5556C1.69287 5.72589 6.41876 1 12.2484 1H29.1373C34.9669 1 39.6929 5.72589 39.6929 11.5556Z" stroke="black" stroke-width="2" stroke-linecap="round" stroke-linejoin="round"/>
<path d="M10.1372 30.5556V23.1667V15.7778" stroke="black" stroke-width="2" stroke-linecap="round" stroke-linejoin="round"/>
<path d="M18.5818 30.5556V23.6945M18.5818 23.6945V15.7778M18.5818 23.6945C18.5818 15.7778 31.2485 15.7778 31.2485 23.6945V30.5556" stroke="black" stroke-width="2" stroke-linecap="round" stroke-linejoin="round"/>
<path d="M10.1372 9.4673L10.1601 9.44189" stroke="black" stroke-width="3" stroke-linecap="round" stroke-linejoin="round"/>
</svg>
