<svg width="53" height="50" viewBox="0 0 53 50" fill="none" xmlns="http://www.w3.org/2000/svg">
<path d="M34.2369 15.8785C32.2235 15.3565 29.4256 14.589 27.1827 14.589C16.1233 14.589 7.15796 21.4686 7.15796 29.9551C7.15796 34.8319 10.1184 39.178 14.7355 41.9931L13.4846 46.1189C13.1833 47.1126 13.9269 48.1153 14.9654 48.1153H19.5149C19.8499 48.1153 20.1758 48.0067 20.4437 47.8056L24.0403 45.1064H30.3249L33.9215 47.8056C34.1895 48.0067 34.5154 48.1153 34.8504 48.1153H39.4C40.4382 48.1153 41.182 47.1126 40.8805 46.1189L39.6297 41.9931C42.3805 40.3161 44.5432 38.0953 45.8422 35.5429" stroke="#00A353" stroke-width="3" stroke-linecap="round" stroke-linejoin="round"/>
<path d="M34.2368 15.8785L45.8421 12.0101L45.6254 21.3673L51 23.6153V32.6416L46.0332 35.2206" stroke="#00A353" stroke-width="3" stroke-linecap="round" stroke-linejoin="round"/>
<path d="M36.8158 27.4837C36.1038 27.4837 35.5264 26.9063 35.5264 26.1943C35.5264 25.4822 36.1038 24.9048 36.8158 24.9048C37.5279 24.9048 38.1053 25.4822 38.1053 26.1943C38.1053 26.9063 37.5279 27.4837 36.8158 27.4837Z" stroke="#00A353" stroke-width="3" stroke-linecap="round" stroke-linejoin="round"/>
<path d="M2 19.7469C2 19.7469 2 25.9364 7.15789 27.4837" stroke="#00A353" stroke-width="3" stroke-linecap="round" stroke-linejoin="round"/>
<path d="M29.8548 13.9519C30.1875 12.9934 30.3685 11.962 30.3685 10.8875C30.3685 5.81022 26.3273 1.69427 21.3422 1.69427C16.3571 1.69427 12.3159 5.81022 12.3159 10.8875C12.3159 13.316 13.2404 15.5245 14.7505 17.168" stroke="#00A353" stroke-width="3" stroke-linejoin="round"/>
</svg>