<svg width="71" height="65" viewBox="0 0 71 65" fill="none" xmlns="http://www.w3.org/2000/svg">
<path d="M56.1738 0.175658L0.646721 15.262C0.289635 15.3591 0.0786522 15.7272 0.17567 16.0843L13.0859 63.6017C13.1829 63.9588 13.5512 64.1696 13.9082 64.0726L69.4353 48.9862C69.7924 48.8892 70.0032 48.5211 69.9062 48.164L56.996 0.646586C56.8989 0.2895 56.5309 0.0786405 56.1738 0.175658Z" fill="#D7E5FF"/>
<path d="M23.7731 51.5342C23.6837 51.5488 23.5925 51.5488 23.5031 51.5342C22.8431 51.3142 22.693 50.4042 22.643 50.1042C22.4627 48.0376 22.5568 45.9561 22.923 43.9142C21.923 42.7442 20.503 41.9142 19.143 42.5342C18.8488 42.6513 18.5867 42.8365 18.3781 43.0747C18.1694 43.3129 18.0203 43.5972 17.943 43.9042C17.353 46.1342 19.8329 49.6842 19.8529 49.7142C19.9298 49.823 19.9604 49.9578 19.9379 50.0891C19.9154 50.2204 19.8418 50.3373 19.733 50.4142C19.6243 50.4911 19.4893 50.5217 19.358 50.4992C19.2268 50.4767 19.11 50.403 19.0331 50.2942C18.9231 50.1342 16.273 46.2942 16.973 43.6442C17.0905 43.1998 17.3083 42.7884 17.61 42.4416C17.9117 42.0948 18.2892 41.822 18.713 41.6442C19.4661 41.3394 20.2953 41.2767 21.0856 41.4649C21.8759 41.6531 22.588 42.0827 23.1229 42.6942C23.6629 39.5742 24.5431 36.6042 25.5031 35.8742C26.4631 35.1442 27.6531 35.4942 28.7831 36.1742C28.4831 33.2442 28.7829 29.6742 31.0729 27.7242C31.5076 27.2495 32.0908 26.9365 32.7267 26.8365C33.3626 26.7366 34.0135 26.8557 34.5729 27.1742C35.5752 27.8585 36.3597 28.8166 36.8329 29.9342C37.8137 26.4394 39.5171 23.1894 41.8329 20.3942C41.8794 20.3474 41.9348 20.3102 41.9957 20.2848C42.0567 20.2594 42.1219 20.2463 42.1879 20.2463C42.2539 20.2463 42.3193 20.2594 42.3803 20.2848C42.4412 20.3102 42.4966 20.3474 42.5431 20.3942C42.6353 20.4894 42.6869 20.6167 42.6869 20.7492C42.6869 20.8818 42.6353 21.0091 42.5431 21.1042C40.0364 24.15 38.3191 27.7667 37.5431 31.6342C37.7875 32.2727 37.9128 32.9506 37.913 33.6342C37.8878 33.7461 37.8326 33.849 37.7533 33.9318C37.674 34.0146 37.5737 34.0742 37.463 34.1042C37.043 34.1542 36.8331 33.7642 36.7531 33.6042C36.5106 33.0267 36.4344 32.3928 36.5331 31.7742C36.0531 30.3842 35.1731 28.5842 34.0231 27.9942C33.6442 27.8245 33.2204 27.7814 32.8151 27.8715C32.4097 27.9615 32.0444 28.1799 31.7731 28.4942C29.4231 30.4942 29.6429 34.7342 29.8529 36.4942C29.8529 36.6842 29.853 36.8742 29.933 37.0542L30.3129 37.4142C31.7529 38.8242 32.8331 40.7442 32.0031 41.8842C31.9153 42.019 31.7898 42.125 31.6422 42.1891C31.4946 42.2531 31.3314 42.2723 31.173 42.2442C30.313 42.0842 29.7029 40.4742 29.3529 39.1542C29.2102 38.6404 29.0936 38.1198 29.0031 37.5942C28.0031 36.7542 26.773 36.2542 26.143 36.7342C25.5129 37.2142 24.5431 40.4042 24.0131 43.7342C24.0931 43.8442 24.1831 43.9542 24.2631 44.0742C25.8231 46.3342 26.493 49.5142 24.733 51.2242C24.4662 51.4496 24.1214 51.561 23.7731 51.5342ZM23.7731 45.0742C23.6531 46.0742 23.5731 46.9942 23.5431 47.8642C23.4149 48.7604 23.5109 49.6744 23.8229 50.5242L24.0131 50.3642C25.1831 49.2242 24.8031 46.9042 23.7631 45.0742H23.7731ZM30.2831 38.7842C30.4624 39.5835 30.7805 40.345 31.223 41.0342C31.2241 40.6146 31.1404 40.199 30.9772 39.8124C30.8139 39.4258 30.5746 39.0761 30.2731 38.7842H30.2831Z" fill="#EDF7FF"/>
<path d="M48.3519 38.0842C48.2172 38.0837 48.084 38.056 47.9603 38.0027C47.8365 37.9494 47.7248 37.8717 47.6319 37.7742L42.192 32.0442C42.1013 31.949 42.0303 31.8369 41.983 31.7142C41.9357 31.5916 41.9131 31.4608 41.9163 31.3294C41.9196 31.198 41.9487 31.0686 42.002 30.9484C42.0553 30.8283 42.1317 30.7198 42.2269 30.6292C42.3221 30.5386 42.4343 30.4676 42.5569 30.4203C42.6796 30.373 42.8103 30.3504 42.9417 30.3536C43.0731 30.3569 43.2027 30.386 43.3228 30.4393C43.443 30.4926 43.5513 30.569 43.6419 30.6642L47.962 35.2142L53.6819 19.2142C53.7723 18.9673 53.9562 18.766 54.1939 18.6537C54.4316 18.5414 54.7039 18.5272 54.952 18.6142C55.2007 18.7026 55.4044 18.8856 55.5186 19.1235C55.6329 19.3614 55.6483 19.6348 55.5618 19.8842L49.2921 37.4242C49.2362 37.586 49.1396 37.7306 49.0118 37.8445C48.884 37.9583 48.729 38.0374 48.5618 38.0742L48.3519 38.0842Z" fill="#0071CA"/>
</svg>
