<svg width="48" height="45" viewBox="0 0 48 45" fill="none" xmlns="http://www.w3.org/2000/svg">
<path d="M14.3186 30.2596V1.79327L17.4815 3.37473L20.6444 1.79327L23.8014 3.37473L27.0009 1.79327L30.1332 3.37473L33.2754 1.79327L36.4314 3.37473L39.622 1.79327L42.7859 3.37473L45.9478 1.79327V23.9337" stroke="#00A353" stroke-width="3" stroke-linejoin="round"/>
<path d="M45.9477 23.9337V35.0039C45.9477 37.1011 45.1146 39.1123 43.6317 40.5952C42.1488 42.0782 40.1375 42.9112 38.0404 42.9112M38.0404 42.9112C35.9432 42.9112 33.932 42.0782 32.4491 40.5952C30.9662 39.1123 30.1331 37.1011 30.1331 35.0039V30.2596H3.24827C3.04008 30.2577 2.8336 30.2974 2.64089 30.3762C2.44819 30.455 2.27312 30.5714 2.12589 30.7186C1.97867 30.8659 1.86225 31.0409 1.78343 31.2336C1.70461 31.4263 1.66496 31.6328 1.66681 31.841C1.66681 38.1669 2.333 42.9112 9.57411 42.9112H38.0404Z" stroke="#00A353" stroke-width="3" stroke-linejoin="round"/>
<path d="M20.6443 11.282H39.6218" stroke="#00A353" stroke-width="3" stroke-linecap="round" stroke-linejoin="round"/>
<path d="M26.9702 19.1894H39.6219" stroke="#00A353" stroke-width="3" stroke-linecap="round" stroke-linejoin="round"/>
</svg>
