<svg width="97" height="104" viewBox="0 0 97 104" fill="none" xmlns="http://www.w3.org/2000/svg">
<path d="M6.1945 65.5717C6.27959 65.9452 6.21458 66.338 6.01382 66.663C5.81306 66.9881 5.4928 67.2193 5.12378 67.3055C5.01862 67.3306 4.91155 67.3432 4.80352 67.3432C4.13911 67.3422 3.56167 66.8778 3.41349 66.2219C2.02441 59.7418 1.05312 53.1775 0.506255 46.5705C0.470883 46.1884 0.586558 45.8082 0.827472 45.5131C1.06934 45.2171 1.41734 45.0313 1.79399 44.9955C2.17257 44.9539 2.55211 45.069 2.8456 45.3148C3.13909 45.5615 3.32073 45.9175 3.35037 46.3016C3.88478 52.7807 4.83509 59.2172 6.1945 65.5717ZM96.4976 27.7001C96.2118 36.6579 95.121 58.7285 90.9729 70.3617C86.3249 83.3878 74.5383 93.4775 53.883 102.076C52.8209 102.515 51.6307 102.515 50.5676 102.076C29.9122 93.4629 18.1252 83.3866 13.4776 70.3617C9.32959 58.7288 8.24149 36.651 7.95588 27.705C7.91955 26.487 8.3918 25.3105 9.25509 24.463C10.0992 23.6271 11.2551 23.1927 12.4328 23.2692C19.4153 23.8138 26.42 22.5494 32.7861 19.5957C39.1512 16.6409 44.6693 12.0959 48.8183 6.38579C49.65 5.3448 50.9024 4.74013 52.2255 4.74013C53.5487 4.74013 54.8009 5.3448 55.6338 6.38579C59.7867 12.0929 65.3048 16.6362 71.6706 19.5897C78.0365 22.5432 85.0414 23.8098 92.024 23.2689C93.1998 23.2021 94.3509 23.6346 95.1989 24.4628C96.0622 25.3093 96.5335 26.4848 96.4981 27.7018L96.4976 27.7001ZM93.642 27.6101C93.6535 27.2076 93.4986 26.8178 93.2137 26.5353C92.9451 26.2663 92.5751 26.126 92.1975 26.1512C84.7502 26.6717 77.2925 25.294 70.5067 22.1448C63.7209 18.9957 57.8234 14.1747 53.354 8.12332C53.0835 7.77212 52.6686 7.56606 52.2279 7.56606C51.7881 7.56606 51.3722 7.77213 51.1017 8.12332C46.6303 14.17 40.7349 18.988 33.952 22.1371C27.1691 25.2863 19.7151 26.6658 12.2697 26.1512C11.8931 26.1309 11.525 26.2702 11.2535 26.5353C10.9677 26.8178 10.8128 27.2086 10.8252 27.613C11.1111 36.4228 12.1703 58.1338 16.1845 69.3806C20.5391 81.5834 31.8141 91.1245 51.6714 99.406V99.4069C52.0385 99.554 52.4467 99.554 52.8138 99.4069C72.672 91.1252 83.937 81.5841 88.3007 69.3816C92.2948 58.1288 93.3684 36.4237 93.6399 27.6091L93.642 27.6101ZM85.9042 16.1619C86.2827 16.1619 86.646 16.01 86.9137 15.7392C87.1814 15.4683 87.3324 15.1006 87.3324 14.7175V11.9545C87.3324 11.1573 86.6929 10.51 85.9042 10.51C85.1164 10.51 84.4769 11.1573 84.4769 11.9545V14.7175C84.4769 15.1006 84.6269 15.4683 84.8946 15.7392C85.1623 16.0101 85.5256 16.1619 85.9042 16.1619ZM85.9042 6.5027C86.2827 6.5027 86.646 6.34984 86.9137 6.07896C87.1814 5.80807 87.3324 5.44043 87.3324 5.05731V2.29526C87.3324 1.49708 86.6929 0.85083 85.9042 0.85083C85.1164 0.85083 84.4769 1.49711 84.4769 2.29526V5.05731C84.4769 5.44043 84.6269 5.80805 84.8946 6.07896C85.1623 6.34986 85.5256 6.5027 85.9042 6.5027ZM81.6213 9.9352H82.5094C83.2981 9.9352 83.9377 9.28795 83.9377 8.4898C83.9377 7.69259 83.2981 7.04538 82.5094 7.04538H81.6213C80.8335 7.04538 80.194 7.69262 80.194 8.4898C80.194 9.28798 80.8335 9.9352 81.6213 9.9352ZM89.3019 9.9352H90.1871C90.9758 9.9352 91.6154 9.28795 91.6154 8.4898C91.6154 7.69259 90.9758 7.04538 90.1871 7.04538H89.3019C88.5141 7.04538 87.8745 7.69262 87.8745 8.4898C87.8745 9.28798 88.5141 9.9352 89.3019 9.9352ZM74.3403 55.4476C74.3384 61.6181 71.8107 67.5129 67.3597 71.7301L67.3167 71.7678V71.7668C63.2335 75.6637 57.8321 77.8348 52.2193 77.8348C46.6065 77.8348 41.2062 75.6638 37.122 71.7668L37.079 71.73C31.6556 66.5666 29.1642 58.9875 30.451 51.566C31.7368 44.1435 36.6277 37.8754 43.4642 34.8877C50.2997 31.901 58.1628 32.5958 64.3826 36.7385C70.6033 40.8804 74.346 47.9119 74.3403 55.4476ZM52.2127 74.9461C56.684 74.9509 61.0166 73.3749 64.461 70.49L62.2708 66.2738L62.2718 66.2748C61.6657 65.11 60.7575 64.1338 59.6438 63.4535C58.53 62.7734 57.2538 62.4135 55.9527 62.4145H48.5007C47.1995 62.4135 45.9233 62.7734 44.8105 63.4535C43.6968 64.1337 42.7876 65.1099 42.1825 66.2748L39.9923 70.4909V70.49C43.4292 73.3682 47.7512 74.9441 52.213 74.9461H52.2127ZM71.4801 55.4476C71.4944 49.0294 68.3874 43.0146 63.1715 39.3642C57.9547 35.714 51.2978 34.8954 45.3688 37.1748C39.4406 39.4542 35.0001 44.5401 33.4952 50.7755C31.9904 57.0099 33.6137 63.5946 37.8363 68.3836L39.6298 64.9161H39.6288C40.4806 63.284 41.7578 61.9181 43.3219 60.968C44.885 60.017 46.6765 59.5177 48.5005 59.5245H55.9785C57.8006 59.5226 59.5884 60.0257 61.1486 60.9777C62.7078 61.9306 63.9812 63.2957 64.8301 64.9278L66.6236 68.3952H66.6226C69.7651 64.8319 71.4983 60.222 71.4917 55.4476L71.4801 55.4476ZM59.4449 48.1229C59.4459 50.0636 58.6839 51.9259 57.3283 53.2987C55.9717 54.6726 54.1323 55.4436 52.2145 55.4446C50.2958 55.4446 48.4556 54.6745 47.099 53.3017C45.7425 51.9288 44.9805 50.0673 44.9796 48.1258C44.9796 46.1851 45.7415 44.3228 47.0981 42.9499C48.4546 41.5771 50.2941 40.806 52.2126 40.806C54.1313 40.8051 55.9725 41.5742 57.331 42.947C58.6895 44.3189 59.4533 46.1804 59.4562 48.1229L59.4449 48.1229ZM56.5893 48.1229C56.5903 46.9474 56.1295 45.8203 55.3092 44.9893C54.4889 44.1583 53.3752 43.69 52.2145 43.69C51.053 43.689 49.9392 44.1554 49.1181 44.9864C48.2969 45.8165 47.8351 46.9436 47.8351 48.119C47.8351 49.2935 48.2959 50.4206 49.1171 51.2516C49.9374 52.0826 51.0511 52.5489 52.2126 52.5489C53.3741 52.5509 54.4898 52.0865 55.3129 51.2554C56.136 50.4253 56.5997 49.2982 56.6006 48.1229L56.5893 48.1229ZM67.6732 100.961C67.0958 100.961 66.5757 101.314 66.3549 101.853C66.134 102.393 66.2555 103.014 66.6646 103.427C67.0728 103.841 67.6866 103.964 68.22 103.741C68.7535 103.517 69.1015 102.99 69.1015 102.406C69.1015 101.613 68.4686 100.967 67.6847 100.961L67.6732 100.961ZM73.8548 97.6874H73.8557C73.2783 97.6874 72.7573 98.0396 72.5365 98.5794C72.3156 99.1193 72.438 99.7404 72.8462 100.154C73.2544 100.567 73.8682 100.69 74.4016 100.467C74.9351 100.243 75.2831 99.7162 75.2831 99.1319C75.2831 98.3385 74.6512 97.6932 73.8672 97.6874L73.8548 97.6874ZM79.5288 93.4713C78.9513 93.4713 78.4313 93.8234 78.2095 94.3633C77.9886 94.9031 78.111 95.5243 78.5192 95.9383C78.9274 96.3515 79.5422 96.4743 80.0756 96.2508C80.6091 96.0273 80.9561 95.501 80.9561 94.9167C80.9561 94.1224 80.3242 93.4781 79.5402 93.4713L79.5288 93.4713Z" fill="#00A353"/>
</svg>
