<svg width="55" height="40" viewBox="0 0 55 40" fill="none" xmlns="http://www.w3.org/2000/svg">
<path d="M43.9121 10.0428C43.5828 14.613 40.1925 18.1336 36.4955 18.1336C32.7984 18.1336 29.4025 14.6141 29.0789 10.0428C28.7417 5.28825 32.0421 1.9519 36.4955 1.9519C40.9488 1.9519 44.2492 5.37478 43.9121 10.0428Z" stroke="#00A353" stroke-width="3" stroke-linecap="round" stroke-linejoin="round"/>
<path d="M36.4955 25.3254C29.1721 25.3254 22.1297 28.9629 20.3655 36.0469C20.1317 36.9841 20.7194 37.9112 21.6825 37.9112H51.3096C52.2726 37.9112 52.8569 36.9841 52.6266 36.0469C50.8623 28.8495 43.8199 25.3254 36.4955 25.3254Z" stroke="#00A353" stroke-width="3" stroke-miterlimit="10"/>
<path d="M21.2129 12.0587C20.9499 15.7086 18.2103 18.5831 15.2571 18.5831C12.3039 18.5831 9.5598 15.7097 9.30135 12.0587C9.03278 8.26166 11.6994 5.54785 15.2571 5.54785C18.8148 5.54785 21.4814 8.33133 21.2129 12.0587Z" stroke="#00A353" stroke-width="3" stroke-linecap="round" stroke-linejoin="round"/>
<path d="M21.8872 25.5502C19.8589 24.6209 17.6249 24.2635 15.2572 24.2635C9.41384 24.2635 3.78396 27.1684 2.37368 32.8264C2.18827 33.5748 2.65799 34.3153 3.42662 34.3153H16.0438" stroke="#00A353" stroke-width="3" stroke-miterlimit="10" stroke-linecap="round"/>
</svg>
