<svg width="40" height="40" viewBox="0 0 40 40" fill="none" xmlns="http://www.w3.org/2000/svg">
<rect x="1" y="1" width="38" height="38" rx="12" fill="#DDDDDD"/>
<path d="M31.6663 10.7233C31.6663 10.7233 29.4771 12.0166 28.2597 12.3832C27.6063 11.6319 26.7379 11.0994 25.772 10.8578C24.8061 10.6161 23.7894 10.6769 22.8592 11.0319C21.929 11.387 21.1302 12.0191 20.571 12.8429C20.0118 13.6667 19.7191 14.6423 19.7324 15.6379V16.7228C17.8258 16.7722 15.9367 16.3494 14.2331 15.4919C12.5295 14.6344 11.0645 13.369 9.96837 11.8082C9.96837 11.8082 5.6288 21.5723 15.3928 25.9119C13.1585 27.4285 10.4969 28.189 7.79858 28.0817C17.5626 33.5061 29.4965 28.0817 29.4965 15.6053C29.4955 15.3031 29.4664 15.0017 29.4097 14.7049C30.5169 13.6129 31.6663 10.7233 31.6663 10.7233Z" fill="#0071CA" stroke="black" stroke-width="2" stroke-linecap="round" stroke-linejoin="round"/>
<path d="M39 11.5556V28.4444C39 34.2741 34.2741 39 28.4444 39H11.5556C5.72589 39 1 34.2741 1 28.4444V11.5556C1 5.72589 5.72589 1 11.5556 1H28.4444C34.2741 1 39 5.72589 39 11.5556Z" stroke="black" stroke-width="2" stroke-linecap="round" stroke-linejoin="round"/>
</svg>


